<?xml version="1.0" encoding="UTF-8" standalone="no"?>
<!DOCTYPE svg PUBLIC "-//W3C//DTD SVG 1.1//EN" "http://www.w3.org/Graphics/SVG/1.1/DTD/svg11.dtd">
<svg width="100%" height="100%" viewBox="0 0 300 300" version="1.1" xmlns="http://www.w3.org/2000/svg" xmlns:xlink="http://www.w3.org/1999/xlink" xml:space="preserve" xmlns:serif="http://www.serif.com/" style="fill-rule:evenodd;clip-rule:evenodd;stroke-linejoin:round;stroke-miterlimit:2;">
    <g transform="matrix(2.28507,0,0,2.28507,117.116,238.634)">
        <path d="M0,-77.573L-0.018,-83.002L67.396,-91.754L67.419,-86.78L0,-77.573ZM73.302,0.308L73.302,-0.585L72.95,-102.692L72.946,-102.692L72.94,-104.432L-5.733,-94.622L-5.605,-82.515L-5.258,-3.878C-9.363,-7.788 -15.388,-10.255 -22.111,-10.257C-34.484,-10.261 -44.516,-1.9 -44.52,8.414C-44.523,18.729 -34.497,26.85 -22.124,26.855C-9.897,26.859 0.036,19.308 0.274,8.308L0.302,8.308L0.302,8.484C0.302,8.467 0.294,8.45 0.294,8.434C0.294,8.412 0.288,8.392 0.288,8.37L0.022,-71.519L67.446,-80.727L67.745,-12.838C63.641,-16.748 57.615,-19.221 50.893,-19.224C38.52,-19.228 28.487,-10.871 28.483,-0.556C28.48,9.758 38.506,18.365 50.879,18.368C63.105,18.374 73.039,10.308 73.276,0.308L73.302,0.308Z" style="fill:rgb(49,49,61);fill-rule:nonzero;"/>
    </g>
</svg>
