<?xml version="1.0" encoding="UTF-8" standalone="no"?>
<!DOCTYPE svg PUBLIC "-//W3C//DTD SVG 1.1//EN" "http://www.w3.org/Graphics/SVG/1.1/DTD/svg11.dtd">
<svg width="100%" height="100%" viewBox="0 0 300 300" version="1.1" xmlns="http://www.w3.org/2000/svg" xmlns:xlink="http://www.w3.org/1999/xlink" xml:space="preserve" xmlns:serif="http://www.serif.com/" style="fill-rule:evenodd;clip-rule:evenodd;stroke-linejoin:round;stroke-miterlimit:2;">
    <g>
        <g>
            <g transform="matrix(1.91877,0,0,1.27855,5.06801,-52.964)">
                <ellipse cx="47.815" cy="270.649" rx="50.456" ry="53.531" style="fill:rgb(231,111,81);"/>
            </g>
            <path d="M219.42,202.604C262.742,218.344 293.834,261.069 293.834,311.251C293.834,374.781 244.003,426.359 182.624,426.359C121.245,426.359 71.413,374.781 71.413,311.251C71.413,263.114 100.022,221.839 140.592,204.661C140.973,205.343 141.366,206.016 141.812,206.663C143.349,209.128 145.219,211.371 147.208,213.444C151.189,217.611 156.141,220.697 161.322,222.622L163.279,223.303L165.267,223.837C166.553,224.224 168.013,224.423 169.346,224.686L171.218,224.902L172.253,225.018L173.239,225.07L175.202,225.185L177.166,225.201C182.389,225.195 187.558,224.424 192.435,222.924C195.822,221.889 199.066,220.495 202.131,218.81C203.253,220.947 204.358,223.07 205.429,225.17C207.366,228.918 209.117,232.656 210.747,236.329C212.359,240.01 213.839,243.641 214.938,247.264C215.49,249.073 215.963,250.872 216.296,252.658C216.372,253.089 216.487,253.585 216.528,253.956L216.702,255.339C216.749,256.196 216.813,257.015 216.777,257.885C216.733,261.319 215.854,264.598 214.374,267.395C212.857,270.174 210.759,272.462 208.327,274.055L207.169,274.756C207.146,274.768 207.057,274.823 207.089,274.802L206.431,275.142C205.786,275.46 205.185,275.717 204.509,275.965C203.195,276.436 201.871,276.79 200.555,276.941C199.241,277.088 197.952,277.091 196.725,276.957C195.498,276.786 194.346,276.464 193.293,276.042C191.191,275.151 189.54,273.789 188.437,272.21C187.863,271.439 187.451,270.589 187.117,269.747C186.942,269.334 186.804,268.901 186.686,268.477L186.532,267.835C186.616,268.006 186.538,267.824 186.549,267.835L186.346,267.131C186.257,266.498 186.104,265.605 186.127,264.883C186.127,264.134 186.194,263.425 186.31,262.777C186.467,261.946 186.724,261.25 187.023,260.662C189.13,261.316 191.452,261.342 193.699,260.577C199.348,258.652 202.368,252.512 200.443,246.861C198.518,241.212 192.407,237.973 186.723,239.792C182.671,241.088 178.927,243.64 176.471,248.92C174.508,253.142 173.644,258.504 174.678,263.531C174.918,264.794 175.269,266.062 175.736,267.317C176.228,268.601 176.726,269.742 177.498,271.132C178.836,273.327 180.808,275.719 183.198,277.581C185.612,279.462 188.539,280.877 191.678,281.518C193.238,281.862 194.853,282.029 196.476,281.989C198.097,281.987 199.734,281.805 201.35,281.445C202.966,281.086 204.568,280.571 206.12,279.873C206.875,279.535 207.683,279.116 208.424,278.678L208.929,278.369L209.228,278.18L210.579,277.246C211.969,276.165 213.294,274.953 214.452,273.553C215.595,272.145 216.592,270.591 217.407,268.923C218.967,265.557 219.835,261.771 219.753,257.892C219.76,256.935 219.653,255.921 219.554,254.933L219.333,253.556C219.252,253.001 219.137,252.588 219.04,252.095C218.638,250.198 218.098,248.323 217.482,246.46C215.04,238.984 211.491,231.629 207.792,223.995C206.717,221.822 205.622,219.617 204.518,217.398C209.293,214.413 213.541,210.667 216.941,206.222C217.825,205.059 218.654,203.852 219.42,202.604ZM168.681,197.041C173.252,196.448 177.904,196.143 182.624,196.143C185.11,196.143 187.577,196.228 190.015,196.394C191.018,198.246 192.017,200.083 193.01,201.904C195.19,205.911 197.334,209.849 199.438,213.714C199.558,213.939 199.673,214.158 199.792,214.384C197.108,216.075 194.165,217.443 191.041,218.383C188.847,219.054 186.58,219.552 184.266,219.83C181.959,220.159 179.603,220.228 177.244,220.139L175.473,220.06L173.701,219.875L172.815,219.776L171.987,219.63L170.131,219.301C167.969,218.771 165.706,218.126 163.612,217.09C161.516,216.094 159.505,214.906 157.734,213.405C155.948,211.935 154.283,210.309 152.882,208.446C151.456,206.613 150.241,204.605 149.264,202.466C149.111,202.171 148.97,201.868 148.838,201.56C154.071,199.832 159.473,198.495 165.011,197.581C167.204,199.214 169.254,199.807 170.602,200.042C170.962,200.095 171.277,200.14 171.548,200.179L172.755,200.193C172.755,200.193 172.595,200.108 172.281,199.937C171.962,199.776 171.486,199.509 170.954,199.13C170.294,198.658 169.487,197.977 168.681,197.041ZM194.241,196.765C200.46,197.435 206.528,198.635 212.404,200.324C212.069,201.041 211.701,201.751 211.299,202.451C209.129,206.355 205.988,209.883 202.191,212.731C199.597,207.531 196.938,202.209 194.241,196.765Z" style="fill:rgb(231,111,81);"/>
        </g>
        <g transform="matrix(0.946561,-0.322525,0.322525,0.946561,191.045,113.188)">
            <path d="M0,70.99C-0.115,77.759 -3.347,85.514 -9.618,91.025C-12.932,94.021 -17.042,96.347 -21.555,97.818C-23.341,84.601 -25.246,70.668 -26.951,56.105C-27.492,51.41 -28.021,46.648 -28.531,41.828C-28.503,41.825 -28.48,41.821 -28.452,41.818C-27.883,41.758 -27.322,41.651 -26.744,41.649C-24.451,41.502 -22.092,41.871 -19.699,42.633C-14.951,44.243 -10.088,47.771 -6.311,52.744C-4.437,55.23 -2.815,58.048 -1.681,61.109C-1.11,62.64 -0.656,64.228 -0.375,65.857C-0.202,66.674 -0.145,67.498 -0.055,68.33L-0.014,68.955L0.008,69.269L0.019,69.427C0.008,69.656 0.049,69.288 0.042,69.402L0,70.99ZM-33.932,99.572C-36.225,99.5 -38.532,99.24 -40.812,98.757C-43.102,98.324 -45.354,97.629 -47.558,96.785L-49.209,96.138L-50.827,95.392L-51.633,95.012L-52.37,94.607L-54.021,93.697C-55.896,92.498 -57.83,91.158 -59.479,89.502C-61.141,87.883 -62.662,86.11 -63.854,84.118C-65.07,82.15 -66.122,80.074 -66.847,77.859C-67.606,75.664 -68.108,73.371 -68.343,71.032C-68.519,69.878 -68.507,68.682 -68.583,67.515C-68.543,66.326 -68.592,65.152 -68.455,63.963C-67.728,54.445 -63.761,45.169 -58.298,36.877C-55.544,32.719 -52.365,28.791 -48.913,25.064C-47.185,23.202 -45.39,21.383 -43.506,19.641C-41.503,17.756 -39.495,15.867 -37.483,13.973C-37.229,13.727 -36.978,13.478 -36.725,13.232C-36.185,18.812 -35.598,24.323 -34.964,29.767C-35.128,29.838 -35.283,29.908 -35.461,29.981L-36.773,30.543C-37.59,30.961 -38.407,31.338 -39.186,31.787C-45.442,35.365 -50.026,40.562 -52.5,45.839C-55.049,51.111 -55.736,56.322 -55.439,60.674C-55.111,65.048 -53.788,68.619 -52.13,71.084C-50.518,73.595 -48.634,74.924 -47.363,75.619C-47.04,75.785 -46.756,75.93 -46.512,76.054C-46.261,76.144 -46.051,76.219 -45.883,76.277C-45.545,76.396 -45.374,76.457 -45.374,76.457C-45.374,76.457 -45.498,76.324 -45.74,76.061C-45.99,75.806 -46.355,75.4 -46.736,74.869C-47.509,73.791 -48.472,72.058 -48.954,69.687C-49.454,67.334 -49.513,64.342 -48.745,61.052C-48.017,57.769 -46.44,54.199 -43.927,50.97C-41.393,47.756 -37.887,44.963 -33.479,43.215C-33.419,43.187 -33.354,43.167 -33.292,43.142C-32.677,47.717 -32.027,52.24 -31.334,56.695C-29.882,66.302 -28.301,75.615 -26.754,84.609C-25.982,89.105 -25.223,93.524 -24.478,97.861C-24.437,98.113 -24.399,98.357 -24.359,98.609C-27.445,99.344 -30.672,99.69 -33.932,99.572M-33.618,-36.478C-33.604,-41.878 -33.475,-47.301 -33.169,-52.717C-32.872,-58.128 -32.365,-63.548 -31.437,-68.816C-30.973,-71.444 -30.41,-74.041 -29.66,-76.482C-28.924,-78.881 -27.921,-81.276 -26.783,-82.664C-26.407,-83.138 -26.069,-83.36 -25.909,-83.434L-25.705,-83.439C-25.996,-83.431 -25.753,-83.423 -25.803,-83.417C-25.738,-83.411 -25.643,-83.381 -25.534,-83.345C-25.313,-83.265 -25.024,-83.149 -24.695,-82.931C-23.334,-82.117 -21.836,-80.274 -20.716,-78.244C-18.434,-74.083 -17.204,-69.016 -16.618,-63.943C-16.051,-58.84 -16.148,-53.591 -16.547,-48.413L-16.717,-46.531L-16.958,-44.429C-17.13,-43.276 -17.317,-41.961 -17.548,-40.77C-18.044,-38.356 -18.675,-36.036 -19.546,-33.818C-21.233,-29.374 -23.859,-25.214 -26.959,-21.135C-28.846,-18.706 -30.882,-16.305 -32.995,-13.92C-33.356,-21.373 -33.601,-28.898 -33.618,-36.478M-25.968,-83.996L-25.935,-83.996L-25.968,-83.996ZM-25.815,-83.454C-25.781,-83.458 -25.843,-83.447 -25.902,-83.439C-25.831,-83.47 -25.786,-83.482 -25.815,-83.454M10.912,57.536C10.376,55.174 9.646,52.883 8.682,50.734C7.741,48.576 6.664,46.501 5.37,44.599C0.33,36.933 -7.132,31.18 -15.579,28.838C-17.678,28.25 -19.825,27.873 -21.958,27.723C-24.097,27.627 -26.217,27.661 -28.259,27.985C-28.812,28.051 -29.354,28.146 -29.892,28.257C-30.519,21.66 -31.094,14.961 -31.607,8.177C-25.515,2.025 -19.633,-4.508 -14.412,-12.198C-11.026,-17.263 -7.872,-22.922 -5.989,-29.192C-5.016,-32.301 -4.383,-35.494 -3.968,-38.644C-3.774,-40.238 -3.657,-41.731 -3.543,-43.381L-3.454,-45.496L-3.409,-47.84C-3.358,-53.927 -4.019,-60.017 -5.5,-66.002C-6.984,-71.973 -9.19,-77.855 -12.919,-83.226C-13.86,-84.568 -14.906,-85.874 -16.142,-87.103C-17.377,-88.33 -18.779,-89.519 -20.584,-90.463C-21.474,-90.938 -22.504,-91.333 -23.643,-91.58C-24.219,-91.699 -24.814,-91.782 -25.451,-91.792C-25.676,-91.795 -25.608,-91.81 -26.073,-91.798L-26.335,-91.78C-26.597,-91.762 -27.252,-91.686 -27.526,-91.608C-28.931,-91.302 -30.124,-90.637 -31.042,-89.916C-31.971,-89.189 -32.668,-88.4 -33.245,-87.625C-35.456,-84.503 -36.331,-81.521 -37.143,-78.593C-37.899,-75.666 -38.382,-72.788 -38.76,-69.929C-40.127,-58.507 -40.193,-47.383 -39.921,-36.404C-39.705,-26.756 -39.193,-17.256 -38.518,-7.903C-41.837,-4.394 -45.257,-0.913 -48.629,2.554C-50.579,4.551 -52.516,6.447 -54.483,8.517C-56.539,10.655 -58.522,12.862 -60.385,15.168C-64.121,19.773 -67.396,24.748 -70.123,29.995C-72.881,35.223 -75.025,40.771 -76.401,46.502C-77.803,52.218 -78.434,58.123 -78.053,63.966C-78.005,65.422 -77.778,66.879 -77.618,68.32C-77.344,69.76 -77.148,71.194 -76.75,72.601C-76.091,75.43 -75.044,78.156 -73.83,80.76C-71.405,85.988 -67.713,90.506 -63.43,94L-61.797,95.275L-60.088,96.422C-58.995,97.203 -57.678,97.862 -56.501,98.541L-54.798,99.349L-53.856,99.793L-52.939,100.16L-51.118,100.902L-49.265,101.551C-44.319,103.23 -39.177,104.167 -34.077,104.32C-30.538,104.433 -27.017,104.16 -23.573,103.553C-23.2,105.938 -22.839,108.304 -22.502,110.637C-21.877,114.809 -21.425,118.912 -21.067,122.915C-20.729,126.919 -20.499,130.833 -20.627,134.617C-20.688,136.508 -20.821,138.363 -21.081,140.161C-21.148,140.593 -21.199,141.1 -21.28,141.464L-21.562,142.829C-21.794,143.656 -21.997,144.452 -22.312,145.264C-23.461,148.5 -25.351,151.32 -27.654,153.49C-29.986,155.632 -32.71,157.121 -35.525,157.844L-36.585,158.075L-36.848,158.134C-36.873,158.138 -36.975,158.162 -36.938,158.152L-37.085,158.174L-37.671,158.262C-38.384,158.355 -39.036,158.404 -39.756,158.421C-41.151,158.443 -42.519,158.351 -43.813,158.069C-45.104,157.785 -46.325,157.372 -47.443,156.849C-48.55,156.292 -49.536,155.615 -50.397,154.876C-52.099,153.355 -53.223,151.533 -53.758,149.683C-54.052,148.768 -54.168,147.83 -54.213,146.926C-54.245,146.478 -54.236,146.024 -54.211,145.585L-54.15,144.927C-54.125,145.116 -54.141,144.919 -54.134,144.933L-54.129,144.829L-54.119,144.618L-54.099,144.201C-53.979,143.573 -53.835,142.678 -53.581,142.002C-53.339,141.293 -53.047,140.644 -52.729,140.068C-52.312,139.332 -51.844,138.756 -51.371,138.296C-49.588,139.594 -47.399,140.368 -45.025,140.368C-39.057,140.368 -34.218,135.53 -34.218,129.561C-34.218,123.593 -38.957,118.556 -44.924,118.444C-49.178,118.364 -53.545,119.572 -57.572,123.778C-60.792,127.141 -63.339,131.938 -63.982,137.03C-64.162,138.303 -64.239,139.616 -64.202,140.955C-64.15,142.329 -64.047,143.569 -63.764,145.134C-63.206,147.643 -62.111,150.544 -60.449,153.077C-58.771,155.636 -56.456,157.92 -53.692,159.539C-52.326,160.368 -50.851,161.046 -49.302,161.532C-47.767,162.053 -46.159,162.409 -44.513,162.589C-42.868,162.77 -41.185,162.8 -39.491,162.639C-38.667,162.563 -37.767,162.427 -36.925,162.251L-36.347,162.122L-36.003,162.039L-35.688,161.95L-34.423,161.591C-32.759,161.016 -31.113,160.296 -29.566,159.345C-28.03,158.38 -26.585,157.231 -25.276,155.915C-22.713,153.232 -20.671,149.928 -19.497,146.23C-19.182,145.327 -18.956,144.332 -18.731,143.365L-18.496,141.99C-18.394,141.439 -18.37,141.011 -18.302,140.513C-18.071,138.588 -17.978,136.639 -17.96,134.676C-17.86,126.813 -18.847,118.706 -19.886,110.287C-20.203,107.883 -20.528,105.443 -20.858,102.986C-15.375,101.701 -10.146,99.525 -5.494,96.414C-1.366,93.636 2.334,90.16 5.207,86.048C6.671,84.01 7.879,81.792 8.875,79.492C9.389,78.344 9.802,77.162 10.188,75.969C10.399,75.396 10.541,74.695 10.714,74.058C10.876,73.412 11.052,72.708 11.133,72.244L11.446,70.686L11.688,68.616C11.802,67.359 11.867,66.093 11.818,64.849C11.784,62.349 11.473,59.892 10.912,57.536" style="fill:rgb(49,49,61);fill-rule:nonzero;"/>
        </g>
        <path d="M204.611,226.561C205.144,226.448 205.698,226.389 206.265,226.389C209.336,226.389 210.779,227.754 211.179,228.064C212.799,229.317 213.579,230.804 213.977,232.199C214.055,232.473 214.12,232.749 214.169,233.027C215.749,233.926 216.572,235.162 217.096,236.113C217.591,237.01 217.932,237.962 218.068,238.969C219.674,238.703 222.125,238.143 223.475,238.011C225.484,237.815 226.987,238.17 227.776,238.451C232.038,239.965 233.274,243.084 233.212,246.271C233.187,247.565 233.038,250.264 229.858,252.773C228.664,253.715 227.286,254.526 225.778,255.22L225.989,255.526C226.08,255.678 226.171,255.829 226.262,255.981L226.442,256.335C227.594,256.147 228.801,255.985 229.928,255.907C232.483,255.73 234.799,255.975 236.432,256.509C240.665,257.891 242.788,260.823 243.165,264.616C243.459,267.573 242.557,270.373 240.502,272.841C238.761,274.933 235.512,276.774 233.609,278.192C224.41,285.052 213.767,289.482 202.907,293.11C199.945,294.099 196.676,294.481 193.616,295.118C193.72,295.096 194.087,295.003 194.087,295.003C194.087,295.003 190.184,295.784 189.236,295.68C187.012,295.436 185.519,294.447 184.542,293.531C182.515,291.631 181.342,289.031 182.115,285.548C182.218,285.088 182.393,284.53 182.669,283.911L182.259,283.935L181.939,283.931C181.68,284.051 181.431,284.152 181.201,284.228C179.275,284.867 177.588,284.747 176.422,284.468C174.094,283.91 172.416,282.586 171.293,280.701C169.421,277.561 168.982,273.989 169.291,270.283C169.414,268.795 169.66,266.096 169.708,265.575C169.353,264.753 169.148,263.9 169.083,263.048C167.498,263.244 165.967,263.352 164.513,263.352C160.973,263.352 159.538,261.673 159.204,261.383C157.244,259.677 156.581,257.694 156.469,255.824C156.385,254.409 156.35,249.687 161.844,247.782C162.08,247.7 163.794,247.341 164.465,247.266C165.262,247.176 166.061,247.111 166.86,247.045C166.453,246.272 166.207,245.47 166.066,244.677C165.722,242.747 165.684,239.64 168.939,237.021C169.251,236.771 172.505,235.293 172.505,235.293C172.505,235.293 172.338,235.354 172.279,235.378C172.983,235.095 173.736,234.717 174.424,234.457C177.274,233.38 180.127,232.305 183.023,231.36C188.151,229.687 193.918,228.627 199.106,227.408C199.902,227.221 203.771,226.678 204.611,226.561Z" style="fill:rgb(231,111,81);"/>
    </g>
    <path d="M113.004,237.929C125.545,222.783 147.542,212.731 172.562,212.731C211.528,212.731 243.163,237.112 243.163,267.143C243.163,268.386 243.109,269.62 243.002,270.839C240.531,246.13 209.915,226.576 172.562,226.576C155.615,226.576 128.172,229.363 115.998,236.069C114.92,236.662 113.925,237.282 113.004,237.929Z" style="fill:rgb(222,111,81);"/>
    <g transform="matrix(0.848471,-0.529242,0.529242,0.848471,-221.802,154.251)">
        <path d="M113.004,237.929C125.545,222.783 147.542,212.731 172.562,212.731C211.528,212.731 243.163,237.112 243.163,267.143C243.163,268.386 243.109,269.62 243.002,270.839C240.531,246.13 209.915,226.576 172.562,226.576C155.615,226.576 128.172,229.363 115.998,236.069C114.92,236.662 113.925,237.282 113.004,237.929Z" style="fill:rgb(222,111,81);"/>
    </g>
    <g transform="matrix(1.53471,0.221626,-0.142927,0.989733,-81.684,17.9953)">
        <path d="M113.004,237.929C125.545,222.783 147.542,212.731 172.562,212.731C211.528,212.731 243.163,237.112 243.163,267.143C243.163,268.386 243.109,269.62 243.002,270.839C240.531,246.13 209.915,226.576 172.562,226.576C155.615,226.576 128.172,229.363 115.998,236.069C114.92,236.662 113.925,237.282 113.004,237.929Z" style="fill:rgb(222,111,81);"/>
    </g>
</svg>
