<?xml version="1.0" encoding="UTF-8" standalone="no"?>
<!DOCTYPE svg PUBLIC "-//W3C//DTD SVG 1.1//EN" "http://www.w3.org/Graphics/SVG/1.1/DTD/svg11.dtd">
<svg width="100%" height="100%" viewBox="0 0 1327 250" version="1.1" xmlns="http://www.w3.org/2000/svg" xmlns:xlink="http://www.w3.org/1999/xlink" xml:space="preserve" xmlns:serif="http://www.serif.com/" style="fill-rule:evenodd;clip-rule:evenodd;stroke-miterlimit:10;">
    <g transform="matrix(1,0,0,1,84.9199,91.8026)">
        <path d="M0,70.99C-0.115,77.759 -3.347,85.514 -9.618,91.025C-12.932,94.021 -17.042,96.347 -21.555,97.818C-23.341,84.601 -25.246,70.668 -26.951,56.105C-27.492,51.41 -28.021,46.648 -28.531,41.828C-28.503,41.825 -28.48,41.821 -28.452,41.818C-27.883,41.758 -27.322,41.651 -26.744,41.649C-24.451,41.502 -22.092,41.871 -19.699,42.633C-14.951,44.243 -10.088,47.771 -6.311,52.744C-4.437,55.23 -2.815,58.048 -1.681,61.109C-1.11,62.64 -0.656,64.228 -0.375,65.857C-0.202,66.674 -0.145,67.498 -0.055,68.33L-0.014,68.955L0.008,69.269L0.019,69.427C0.008,69.656 0.049,69.288 0.042,69.402L0,70.99ZM-33.932,99.572C-36.225,99.5 -38.532,99.24 -40.812,98.757C-43.102,98.324 -45.354,97.629 -47.558,96.785L-49.209,96.138L-50.827,95.392L-51.633,95.012L-52.37,94.607L-54.021,93.697C-55.896,92.498 -57.83,91.158 -59.479,89.502C-61.141,87.883 -62.662,86.11 -63.854,84.118C-65.07,82.15 -66.122,80.074 -66.847,77.859C-67.606,75.664 -68.108,73.371 -68.343,71.032C-68.519,69.878 -68.507,68.682 -68.583,67.515C-68.543,66.326 -68.592,65.152 -68.455,63.963C-67.728,54.445 -63.761,45.169 -58.298,36.877C-55.544,32.719 -52.365,28.791 -48.913,25.064C-47.185,23.202 -45.39,21.383 -43.506,19.641C-41.503,17.756 -39.495,15.867 -37.483,13.973C-37.229,13.727 -36.978,13.478 -36.725,13.232C-36.185,18.812 -35.598,24.323 -34.964,29.767C-35.128,29.838 -35.283,29.908 -35.461,29.981L-36.773,30.543C-37.59,30.961 -38.407,31.338 -39.186,31.787C-45.442,35.365 -50.026,40.562 -52.5,45.839C-55.049,51.111 -55.736,56.322 -55.439,60.674C-55.111,65.048 -53.788,68.619 -52.13,71.084C-50.518,73.595 -48.634,74.924 -47.363,75.619C-47.04,75.785 -46.756,75.93 -46.512,76.054C-46.261,76.144 -46.051,76.219 -45.883,76.277C-45.545,76.396 -45.374,76.457 -45.374,76.457C-45.374,76.457 -45.498,76.324 -45.74,76.061C-45.99,75.806 -46.355,75.4 -46.736,74.869C-47.509,73.791 -48.472,72.058 -48.954,69.687C-49.454,67.334 -49.513,64.342 -48.745,61.052C-48.017,57.769 -46.44,54.199 -43.927,50.97C-41.393,47.756 -37.887,44.963 -33.479,43.215C-33.419,43.187 -33.354,43.167 -33.292,43.142C-32.677,47.717 -32.027,52.24 -31.334,56.695C-29.882,66.302 -28.301,75.615 -26.754,84.609C-25.982,89.105 -25.223,93.524 -24.478,97.861C-24.437,98.113 -24.399,98.357 -24.359,98.609C-27.445,99.344 -30.672,99.69 -33.932,99.572M-33.618,-36.478C-33.604,-41.878 -33.475,-47.301 -33.169,-52.717C-32.872,-58.128 -32.365,-63.548 -31.437,-68.816C-30.973,-71.444 -30.41,-74.041 -29.66,-76.482C-28.924,-78.881 -27.921,-81.276 -26.783,-82.664C-26.407,-83.138 -26.069,-83.36 -25.909,-83.434L-25.705,-83.439C-25.996,-83.431 -25.753,-83.423 -25.803,-83.417C-25.738,-83.411 -25.643,-83.381 -25.534,-83.345C-25.313,-83.265 -25.024,-83.149 -24.695,-82.931C-23.334,-82.117 -21.836,-80.274 -20.716,-78.244C-18.434,-74.083 -17.204,-69.016 -16.618,-63.943C-16.051,-58.84 -16.148,-53.591 -16.547,-48.413L-16.717,-46.531L-16.958,-44.429C-17.13,-43.276 -17.317,-41.961 -17.548,-40.77C-18.044,-38.356 -18.675,-36.036 -19.546,-33.818C-21.233,-29.374 -23.859,-25.214 -26.959,-21.135C-28.846,-18.706 -30.882,-16.305 -32.995,-13.92C-33.356,-21.373 -33.601,-28.898 -33.618,-36.478M-25.968,-83.996L-25.935,-83.996L-25.968,-83.996ZM-25.815,-83.454C-25.781,-83.458 -25.843,-83.447 -25.902,-83.439C-25.831,-83.47 -25.786,-83.482 -25.815,-83.454M10.912,57.536C10.376,55.174 9.646,52.883 8.682,50.734C7.741,48.576 6.664,46.501 5.37,44.599C0.33,36.933 -7.132,31.18 -15.579,28.838C-17.678,28.25 -19.825,27.873 -21.958,27.723C-24.097,27.627 -26.217,27.661 -28.259,27.985C-28.812,28.051 -29.354,28.146 -29.892,28.257C-30.519,21.66 -31.094,14.961 -31.607,8.177C-25.515,2.025 -19.633,-4.508 -14.412,-12.198C-11.026,-17.263 -7.872,-22.922 -5.989,-29.192C-5.016,-32.301 -4.383,-35.494 -3.968,-38.644C-3.774,-40.238 -3.657,-41.731 -3.543,-43.381L-3.454,-45.496L-3.409,-47.84C-3.358,-53.927 -4.019,-60.017 -5.5,-66.002C-6.984,-71.973 -9.19,-77.855 -12.919,-83.226C-13.86,-84.568 -14.906,-85.874 -16.142,-87.103C-17.377,-88.33 -18.779,-89.519 -20.584,-90.463C-21.474,-90.938 -22.504,-91.333 -23.643,-91.58C-24.219,-91.699 -24.814,-91.782 -25.451,-91.792C-25.676,-91.795 -25.608,-91.81 -26.073,-91.798L-26.335,-91.78C-26.597,-91.762 -27.252,-91.686 -27.526,-91.608C-28.931,-91.302 -30.124,-90.637 -31.042,-89.916C-31.971,-89.189 -32.668,-88.4 -33.245,-87.625C-35.456,-84.503 -36.331,-81.521 -37.143,-78.593C-37.899,-75.666 -38.382,-72.788 -38.76,-69.929C-40.127,-58.507 -40.193,-47.383 -39.921,-36.404C-39.705,-26.756 -39.193,-17.256 -38.518,-7.903C-41.837,-4.394 -45.257,-0.913 -48.629,2.554C-50.579,4.551 -52.516,6.447 -54.483,8.517C-56.539,10.655 -58.522,12.862 -60.385,15.168C-64.121,19.773 -67.396,24.748 -70.123,29.995C-72.881,35.223 -75.025,40.771 -76.401,46.502C-77.803,52.218 -78.434,58.123 -78.053,63.966C-78.005,65.422 -77.778,66.879 -77.618,68.32C-77.344,69.76 -77.148,71.194 -76.75,72.601C-76.091,75.43 -75.044,78.156 -73.83,80.76C-71.405,85.988 -67.713,90.506 -63.43,94L-61.797,95.275L-60.088,96.422C-58.995,97.203 -57.678,97.862 -56.501,98.541L-54.798,99.349L-53.856,99.793L-52.939,100.16L-51.118,100.902L-49.265,101.551C-44.319,103.23 -39.177,104.167 -34.077,104.32C-30.538,104.433 -27.017,104.16 -23.573,103.553C-23.2,105.938 -22.839,108.304 -22.502,110.637C-21.877,114.809 -21.425,118.912 -21.067,122.915C-20.729,126.919 -20.499,130.833 -20.627,134.617C-20.688,136.508 -20.821,138.363 -21.081,140.161C-21.148,140.593 -21.199,141.1 -21.28,141.464L-21.562,142.829C-21.794,143.656 -21.997,144.452 -22.312,145.264C-23.461,148.5 -25.351,151.32 -27.654,153.49C-29.986,155.632 -32.71,157.121 -35.525,157.844L-36.585,158.075L-36.848,158.134C-36.873,158.138 -36.975,158.162 -36.938,158.152L-37.085,158.174L-37.671,158.262C-38.384,158.355 -39.036,158.404 -39.756,158.421C-41.151,158.443 -42.519,158.351 -43.813,158.069C-45.104,157.785 -46.325,157.372 -47.443,156.849C-48.55,156.292 -49.536,155.615 -50.397,154.876C-52.099,153.355 -53.223,151.533 -53.758,149.683C-54.052,148.768 -54.168,147.83 -54.213,146.926C-54.245,146.478 -54.236,146.024 -54.211,145.585L-54.15,144.927C-54.125,145.116 -54.141,144.919 -54.134,144.933L-54.129,144.829L-54.119,144.618L-54.099,144.201C-53.979,143.573 -53.835,142.678 -53.581,142.002C-53.339,141.293 -53.047,140.644 -52.729,140.068C-52.312,139.332 -51.844,138.756 -51.371,138.296C-49.588,139.594 -47.399,140.368 -45.025,140.368C-39.057,140.368 -34.218,135.53 -34.218,129.561C-34.218,123.593 -38.957,118.556 -44.924,118.444C-49.178,118.364 -53.545,119.572 -57.572,123.778C-60.792,127.141 -63.339,131.938 -63.982,137.03C-64.162,138.303 -64.239,139.616 -64.202,140.955C-64.15,142.329 -64.047,143.569 -63.764,145.134C-63.206,147.643 -62.111,150.544 -60.449,153.077C-58.771,155.636 -56.456,157.92 -53.692,159.539C-52.326,160.368 -50.851,161.046 -49.302,161.532C-47.767,162.053 -46.159,162.409 -44.513,162.589C-42.868,162.77 -41.185,162.8 -39.491,162.639C-38.667,162.563 -37.767,162.427 -36.925,162.251L-36.347,162.122L-36.003,162.039L-35.688,161.95L-34.423,161.591C-32.759,161.016 -31.113,160.296 -29.566,159.345C-28.03,158.38 -26.585,157.231 -25.276,155.915C-22.713,153.232 -20.671,149.928 -19.497,146.23C-19.182,145.327 -18.956,144.332 -18.731,143.365L-18.496,141.99C-18.394,141.439 -18.37,141.011 -18.302,140.513C-18.071,138.588 -17.978,136.639 -17.96,134.676C-17.86,126.813 -18.847,118.706 -19.886,110.287C-20.203,107.883 -20.528,105.443 -20.858,102.986C-15.375,101.701 -10.146,99.525 -5.494,96.414C-1.366,93.636 2.334,90.16 5.207,86.048C6.671,84.01 7.879,81.792 8.875,79.492C9.389,78.344 9.802,77.162 10.188,75.969C10.399,75.396 10.541,74.695 10.714,74.058C10.876,73.412 11.052,72.708 11.133,72.244L11.446,70.686L11.688,68.616C11.802,67.359 11.867,66.093 11.818,64.849C11.784,62.349 11.473,59.892 10.912,57.536" style="fill:rgb(49,49,61);fill-rule:nonzero;"/>
    </g>
    <g transform="matrix(2.39964,0,0,1,0,51.8063)">
        <path d="M0,0L553,0" style="fill:none;fill-rule:nonzero;stroke:rgb(49,49,61);stroke-width:2.18px;"/>
    </g>
    <g transform="matrix(2.39964,0,0,1,0,87.8063)">
        <path d="M0,0L553,0" style="fill:none;fill-rule:nonzero;stroke:rgb(49,49,61);stroke-width:2.18px;"/>
    </g>
    <g transform="matrix(2.39964,0,0,1,0,123.806)">
        <path d="M0,0L553,0" style="fill:none;fill-rule:nonzero;stroke:rgb(49,49,61);stroke-width:2.18px;"/>
    </g>
    <g transform="matrix(2.39964,0,0,1,0,159.806)">
        <path d="M0,0L553,0" style="fill:none;fill-rule:nonzero;stroke:rgb(49,49,61);stroke-width:2.18px;"/>
    </g>
    <g transform="matrix(2.39964,0,0,1,0,195.806)">
        <path d="M0,0L553,0" style="fill:none;fill-rule:nonzero;stroke:rgb(49,49,61);stroke-width:2.18px;"/>
    </g>
</svg>
